<?xml version="1.0" encoding="utf-8"?>
<!-- Generator: Adobe Illustrator 19.2.1, SVG Export Plug-In . SVG Version: 6.00 Build 0)  -->
<svg version="1.1" id="Capa_1" xmlns="http://www.w3.org/2000/svg" xmlns:xlink="http://www.w3.org/1999/xlink" x="0px" y="0px"
	 viewBox="0 0 60 60" style="enable-background:new 0 0 60 60;" xml:space="preserve">
<style type="text/css">
	.st0{fill:#616161;}
</style>
<g>
	<path class="st0" d="M57,4h-7V1c0-0.6-0.4-1-1-1h-7c-0.6,0-1,0.4-1,1v3H19V1c0-0.6-0.4-1-1-1h-7c-0.6,0-1,0.4-1,1v3H3
		C2.4,4,2,4.4,2,5v11v43c0,0.6,0.4,1,1,1h54c0.6,0,1-0.4,1-1V16V5C58,4.4,57.6,4,57,4z M4,58V17h52v41H4z M23.5,36.2H12.7V25.4h10.8
		C23.5,25.4,23.5,36.2,23.5,36.2z"/>
</g>
<rect x="4" y="17" class="st0" width="2" height="41"/>
<rect x="54" y="17" class="st0" width="2" height="41"/>
<rect x="6" y="56.3" class="st0" width="48" height="1.8"/>
</svg>
