<?xml version="1.0" encoding="iso-8859-1"?>
<!-- Generator: Adobe Illustrator 19.1.0, SVG Export Plug-In . SVG Version: 6.00 Build 0)  -->
<svg version="1.1" id="Capa_1" xmlns="http://www.w3.org/2000/svg" xmlns:xlink="http://www.w3.org/1999/xlink" x="0px" y="0px"
	 viewBox="0 0 31.059 31.059" style="enable-background:new 0 0 31.059 31.059;" xml:space="preserve">
<g>
	<g>
		<path style="fill:#010002;" d="M30.171,5.265H0.888C0.398,5.265,0,4.867,0,4.377C0,3.887,0.398,3.49,0.888,3.49h29.283
			c0.49,0,0.888,0.396,0.888,0.887C31.059,4.867,30.661,5.265,30.171,5.265z"/>
	</g>
	<g>
		<path style="fill:#010002;" d="M30.171,16.416H0.888C0.398,16.416,0,16.02,0,15.529c0-0.49,0.398-0.888,0.888-0.888h29.283
			c0.49,0,0.888,0.397,0.888,0.888C31.059,16.02,30.661,16.416,30.171,16.416z"/>
	</g>
	<g>
		<path style="fill:#010002;" d="M30.171,27.568H0.888C0.398,27.568,0,27.171,0,26.681c0-0.49,0.398-0.888,0.888-0.888h29.283
			c0.49,0,0.888,0.398,0.888,0.888C31.059,27.171,30.661,27.568,30.171,27.568z"/>
	</g>
</g>
<g>
</g>
<g>
</g>
<g>
</g>
<g>
</g>
<g>
</g>
<g>
</g>
<g>
</g>
<g>
</g>
<g>
</g>
<g>
</g>
<g>
</g>
<g>
</g>
<g>
</g>
<g>
</g>
<g>
</g>
</svg>
