<?xml version="1.0" encoding="utf-8"?>
<!-- Generator: Adobe Illustrator 19.2.1, SVG Export Plug-In . SVG Version: 6.00 Build 0)  -->
<svg version="1.1" id="Capa_1" xmlns="http://www.w3.org/2000/svg" xmlns:xlink="http://www.w3.org/1999/xlink" x="0px" y="0px"
	 viewBox="0 0 31.1 31.1" style="enable-background:new 0 0 31.1 31.1;" xml:space="preserve">
<style type="text/css">
	.st0{fill:#EE6800;}
</style>
<g>
	<g>
		<path class="st0" d="M30.2,5.3H0.9C0.4,5.3,0,4.9,0,4.4s0.4-0.9,0.9-0.9h29.3c0.5,0,0.9,0.4,0.9,0.9C31.1,4.9,30.7,5.3,30.2,5.3z"
			/>
	</g>
	<g>
		<path class="st0" d="M30.2,16.4H0.9C0.4,16.4,0,16,0,15.5c0-0.5,0.4-0.9,0.9-0.9h29.3c0.5,0,0.9,0.4,0.9,0.9
			C31.1,16,30.7,16.4,30.2,16.4z"/>
	</g>
	<g>
		<path class="st0" d="M30.2,27.6H0.9c-0.5,0-0.9-0.4-0.9-0.9s0.4-0.9,0.9-0.9h29.3c0.5,0,0.9,0.4,0.9,0.9
			C31.1,27.2,30.7,27.6,30.2,27.6z"/>
	</g>
</g>
</svg>
