<?xml version="1.0" encoding="utf-8"?>
<!-- Generator: Adobe Illustrator 19.2.1, SVG Export Plug-In . SVG Version: 6.00 Build 0)  -->
<svg version="1.1" id="Capa_1" xmlns="http://www.w3.org/2000/svg" xmlns:xlink="http://www.w3.org/1999/xlink" x="0px" y="0px"
	 viewBox="0 0 294.7 294.7" style="enable-background:new 0 0 294.7 294.7;" xml:space="preserve">
<path d="M286.3,112l-4.7-4.7L230.2,46c-4-6.9-11.4-11.1-19.4-11.1H15c-8.3,0-15,6.7-15,15v147.7c0,8.3,6.7,15,15,15h4.7
	c0.4,26.1,21.8,47.3,48,47.3c26.2,0,47.6-21.2,48-47.3H180c0.4,26.1,21.8,47.3,48,47.3c26.2,0,47.6-21.2,48-47.3h3.7
	c8.3,0,15-6.7,15-15v-65.3C294.7,123.9,294.7,118.9,286.3,112z M253.9,125.7h-84.2c-3.9,0-7-3.1-7-6.8v-63c0-3.8,3.1-6.8,7-6.8h47.7
	c2.5,0,4.8,1.3,6.1,3.5l47,69.9C273,126.9,259.2,125.7,253.9,125.7z M67.7,238.8c-14.9,0-27-12.1-27-27s12.1-27,27-27s27,12.1,27,27
	S82.6,238.8,67.7,238.8z M228,238.8c-14.9,0-27-12.1-27-27s12.1-27,27-27s27,12.1,27,27S242.9,238.8,228,238.8z"/>
</svg>
