<svg xmlns="http://www.w3.org/2000/svg" viewBox="0 0 512 512"><g fill="#ee6800"><path d="M2.07 127.8C.74 132.73 0 137.92 0 143.3 0 385-.06 369.46.2 373.1L157.1 229.28 2.07 127.8zM255.9 281.13c-23.96 0-35.22-10.26-66.6-30.8L15.97 409.24c10.9 11.7 26.42 19.06 43.64 19.06h392.6c17.23 0 32.75-7.36 43.64-19.08L322.5 250.35c-31.37 20.53-42.63 30.8-66.6 30.8zM271.4 239.22L489.23 96.66c-10.18-8.1-23.04-12.95-37.02-12.95H59.6c-13.98 0-26.85 4.86-37.02 12.96L240.4 239.22c9.42 6.16 21.6 6.17 31 0zM509.73 127.8L354.68 229.26 511.6 373.1c.1-1.24 1.57-232.58-1.87-245.3z"/></g></svg>