<svg xmlns="http://www.w3.org/2000/svg" id="Слой_1" viewBox="0 0 20.5 10.7"><style>.st0{fill:#EE6800;}</style><path d="M4.4 4.7l-.3.8h.4l-.1-.8zm2.5.7h-.6v.4h.5c.2 0 .2 0 .2-.2 0-.1 0-.2-.1-.2zm-.1-.8h-.5V5h.4c.1 0 .2 0 .2-.2.1-.2 0-.2-.1-.2zM0 8.8v.1c0 1 .8 1.8 1.8 1.8h16.9c1 0 1.8-.8 1.8-1.8v-.1H0z" class="st0"/><path d="M0 3.2v4.2h20.5V3.2H0zm4.8 3.2l-.1-.5H4l-.1.5h-.7L4.1 4h.5l.9 2.4h-.7zm2 0H5.7V4h1.4c.3 0 .5.3.5.6 0 .2-.1.4-.3.5.3.1.4.3.4.6 0 .5-.4.7-.9.7zm2.2 0c-.7 0-1.1-.6-1.1-1.2S8.3 4 9 4c.4 0 .8.2.9.5l-.5.4c-.1-.3-.3-.3-.4-.3-.3 0-.5.3-.5.6s.2.6.5.6c.2 0 .3-.1.4-.3l.5.3c-.1.4-.5.6-.9.6zm2.2-.6h-1v-.6h1v.6zm1.9.6h-1.5v-.6h.4V4.6c-.1.1-.4.3-.6.3v-.6c.3 0 .6-.3.6-.3h.6v1.8h.4v.6h.1zm2 0h-1.8c0-.6.1-.9.6-1.1.3-.1.5-.2.5-.5 0-.2-.1-.2-.2-.2-.2 0-.4.1-.5.2l-.4-.4c.2-.2.5-.4 1-.4s.9.3.9.8c0 .4-.2.5-.5.7-.2.1-.4.2-.4.4h.9l-.1.5zm1.1 0c-.4 0-.6-.1-.8-.4l.3-.4s.1.2.4.2c.2 0 .3-.1.3-.2 0-.2-.2-.2-.6-.2h-.1v-.5h.1c.3 0 .6-.1.6-.2s-.1-.1-.2-.1c-.3 0-.4.1-.4.2l-.4-.5c.2-.2.5-.3.8-.3.5 0 .9.3.9.6s-.2.4-.4.5c.3 0 .5.3.5.6-.1.5-.6.7-1 .7zM18.7 0H1.8C.8 0 0 .8 0 1.8v.1h20.5v-.1c0-1-.8-1.8-1.8-1.8z" class="st0"/></svg>