<svg xmlns="http://www.w3.org/2000/svg" id="Слой_1" viewBox="0 0 16 16"><style>.st0{fill:#EE6800;}</style><path d="M1.4 8.1c.1.6.5 1.3.6 1.4 0 .2.1.3.1.5l.6 5.4c0 .4.3.6.6.6h1c.3 0 .6-.2.6-.6l.5-5.4c0-.2.1-.4.1-.5.1-.2 0-.3-.2-.4 0-.1-.2 0-.3.2-.1.2-.1.4-.2.7l-.6 5.4h-1L2.7 10c0-.2-.1-.5-.2-.7 0 0-.4-.7-.6-1.2-.1-.7-.2-1.9 0-2.1.1-.1.1-.2.2-.2.3-.2.6-.3.7-.4l.7.9c.1.1.1.1.2.1s.2 0 .2-.1l.8-1.1c.2-.2.2-.4 0-.5-.1-.1-.3 0-.4.1l-.5.8-.6-.8c-.1-.1-.2-.2-.4-.1 0 0-.6.2-1.1.6-.1.1-.1.2-.3.3-.4.4-.1 2.1 0 2.5zm2.3-3.8c.4 0 .8-.1 1-.4.5-.5.4-1.5.4-1.6 0-1-.8-1.4-1.3-1.4h-.1c-.6.1-1.3.4-1.3 1.4 0 .1-.1 1 .4 1.6.2.3.5.4.9.4zM3 2.4c0-.7.5-.8.7-.8.3 0 .7.1.7.8 0 .2 0 .8-.3 1.1 0 .1-.1.2-.3.2-.2 0-.4-.1-.5-.2C3 3.2 3 2.6 3 2.4zm7.6 6.7c-.2.1-.2.2-.2.4.1.2.1.3.1.5l.6 5.4c0 .3.3.6.6.6h1c.3 0 .6-.2.6-.6l.6-5.4c0-.2.1-.4.1-.5.1-.1.5-.8.6-1.4.1-.4.4-2.1 0-2.5l-.3-.3c-.5-.4-1.1-.6-1.1-.6-.1-.1-.3 0-.3.1l-.6.8-.6-.8c-.1-.1-.3-.2-.4-.1-.1.1-.2.3-.1.4l.8 1.1c.1.1.1.1.2.1s.2 0 .2-.1l.7-.9c.2.1.5.2.7.4.2.1.2.2.3.3.1.2.1 1.4-.1 2-.1.5-.5 1.2-.6 1.2-.1.2-.2.5-.2.7l-.6 5.4h-1l-.4-5.3c0-.2-.1-.5-.2-.7-.1-.2-.3-.3-.4-.2zm1.6-4.8c.4 0 .8-.1 1-.4.5-.5.4-1.5.4-1.6 0-1-.7-1.4-1.3-1.4h-.1c-.6 0-1.3.4-1.3 1.4 0 .1-.1 1 .4 1.6.2.3.5.4.9.4zm-.7-1.9c0-.7.5-.8.7-.8.3 0 .7.1.7.8 0 .2 0 .8-.3 1.1-.1.1-.3.2-.5.2s-.4-.1-.5-.2c-.2-.3-.2-.9-.1-1.1zm-6 2.5c-.4.5-.2 2.3 0 2.7.1.6.5 1.4.6 1.5.1.2.1.4.1.6l.6 5.8c0 .3.3.6.7.6h1c.3 0 .6-.3.7-.6l.6-5.8c0-.2.1-.4.1-.6.1-.1.5-.9.6-1.5.1-.4.4-2.3-.1-2.7l-.3-.3C9.6 4.2 9 4 9 4c-.2-.1-.3 0-.4.1l-.6.8-.6-.8C7.3 4 7.2 3.9 7 4l-1.2.6c-.1.1-.1.2-.3.3zM8 3.5c.5 0 .8-.2 1-.4.5-.6.4-1.6.4-1.7C9.4.4 8.6 0 8 0c-.6 0-1.4.4-1.4 1.4 0 .1-.1 1.1.4 1.7.2.3.6.4 1 .4z" class="st0"/></svg>