<?xml version="1.0" encoding="utf-8"?>
<!-- Generator: Adobe Illustrator 19.2.1, SVG Export Plug-In . SVG Version: 6.00 Build 0)  -->
<svg version="1.1" id="Capa_1" xmlns="http://www.w3.org/2000/svg" xmlns:xlink="http://www.w3.org/1999/xlink" x="0px" y="0px"
	 viewBox="0 0 29.7 29.7" style="enable-background:new 0 0 29.7 29.7;" xml:space="preserve">
<path d="M23.9,29.7c-1.2,0-2.7-0.3-4.4-0.9c-3.6-1.4-7.5-4-11-7.6c-3.5-3.5-6.2-7.4-7.6-11c-1.2-3.3-1.2-6,0-7.2
	c0.2-0.2,0.4-0.4,0.5-0.6C2.6,1.3,3.9-0.1,5.5,0c1.2,0,2.3,0.8,3.4,2.2c3.4,4.2,1.9,5.7,0.1,7.5L8.8,10c-0.3,0.3-0.8,1.6,4.3,6.7
	c1.7,1.7,3.1,2.9,4.2,3.6c0.7,0.5,2,1.2,2.5,0.6l0.3-0.3c1.7-1.8,3.3-3.3,7.5,0.1c1.4,1.1,2.1,2.3,2.2,3.4c0.1,1.7-1.3,3-2.5,4.1
	c-0.2,0.2-0.4,0.4-0.6,0.5C26.1,29.4,25.1,29.7,23.9,29.7z"/>
</svg>
