<?xml version="1.0" encoding="utf-8"?>
<!-- Generator: Adobe Illustrator 19.2.1, SVG Export Plug-In . SVG Version: 6.00 Build 0)  -->
<svg version="1.1" id="Capa_1" xmlns="http://www.w3.org/2000/svg" xmlns:xlink="http://www.w3.org/1999/xlink" x="0px" y="0px"
	 viewBox="0 0 50.7 50.7" style="enable-background:new 0 0 50.7 50.7;" xml:space="preserve">
<g>
	<g>
		<g>
			<path d="M11.5,34.6c-2.8,0-5,2.2-5,5s2.2,5,5,5c2.8,0,5-2.2,5-5S14.3,34.6,11.5,34.6z M11.5,42.9c-1.8,0-3.3-1.5-3.3-3.3
				c0-1.8,1.5-3.3,3.3-3.3c1.8,0,3.3,1.5,3.3,3.3C14.8,41.4,13.3,42.9,11.5,42.9z"/>
			<path d="M39.5,34.6c-2.8,0-5,2.2-5,5s2.2,5,5,5c2.8,0,5-2.2,5-5S42.3,34.6,39.5,34.6z M39.5,42.9c-1.8,0-3.3-1.5-3.3-3.3
				c0-1.8,1.5-3.3,3.3-3.3c1.8,0,3.3,1.5,3.3,3.3C42.8,41.4,41.4,42.9,39.5,42.9z"/>
			<path d="M49.7,33.9h-0.3V21.6c0-0.6-0.3-1.5-0.7-2l-5.6-7.4c-0.3-0.4-1.1-0.8-1.6-0.8h-8.9c-0.1,0-0.3-0.1-0.3-0.3V7.4
				c0-0.7-0.6-1.3-1.3-1.3h-25c-2.4,0-4.4,2-4.4,4.4v23.2c0,0.1-0.1,0.3-0.3,0.3h0c-0.7,0-1.3,0.6-1.3,1.3v3c0,0.7,0.6,1.3,1.3,1.3
				h3c0.1,0,0.3-0.1,0.3-0.3c0.1-3.7,3.2-6.7,7-6.7c3.8,0,6.8,3,7,6.7c0,0.1,0.1,0.3,0.3,0.3h13.5c0.1,0,0.3-0.1,0.3-0.3
				c0.1-3.7,3.2-6.7,7-6.7c3.8,0,6.8,3,7,6.7c0,0.1,0.1,0.3,0.3,0.3h2.6c0.7,0,1.3-0.6,1.3-1.3v-3.3C50.7,34.4,50.2,33.9,49.7,33.9z
				 M34.8,21.3v-6h4.3c0.5,0,1.2,0.4,1.6,0.8l3.8,5.2L34.8,21.3L34.8,21.3z"/>
		</g>
	</g>
</g>
</svg>
