<?xml version="1.0" encoding="utf-8"?>
<!-- Generator: Adobe Illustrator 19.2.1, SVG Export Plug-In . SVG Version: 6.00 Build 0)  -->
<svg version="1.1" id="Capa_1" xmlns="http://www.w3.org/2000/svg" xmlns:xlink="http://www.w3.org/1999/xlink" x="0px" y="0px"
	 viewBox="0 0 22.9 22.9" style="enable-background:new 0 0 22.9 22.9;" xml:space="preserve">
<style type="text/css">
	.st0{fill:#EE6800;}
</style>
<path class="st0" d="M0.3,1.9c-0.4-0.4-0.4-1.1,0-1.6c0.4-0.4,1.1-0.4,1.6,0l9.5,9.5L21,0.3c0.4-0.4,1.1-0.4,1.6,0
	c0.4,0.4,0.4,1.2,0,1.6L13,11.4l9.5,9.5c0.4,0.4,0.4,1.1,0,1.6c-0.4,0.4-1.1,0.4-1.6,0L11.4,13l-9.5,9.5c-0.4,0.4-1.1,0.4-1.6,0
	c-0.4-0.4-0.4-1.2,0-1.6l9.5-9.5L0.3,1.9z"/>
</svg>
